<svg width="10" height="10" viewBox="0 0 10 10" fill="none" xmlns="http://www.w3.org/2000/svg">
<g clip-path="url(#clip0)">
<path d="M5.91616 5.00857L9.80997 1.11466C10.0634 0.861375 10.0634 0.451851 9.80997 0.198568C9.55668 -0.0547148 9.14716 -0.0547148 8.89388 0.198568L4.99995 4.09248L1.10614 0.198568C0.852741 -0.0547148 0.443335 -0.0547148 0.190052 0.198568C-0.0633506 0.451851 -0.0633506 0.861375 0.190052 1.11466L4.08386 5.00857L0.190052 8.90249C-0.0633506 9.15577 -0.0633506 9.56529 0.190052 9.81858C0.316278 9.94492 0.482247 10.0084 0.648098 10.0084C0.813948 10.0084 0.979799 9.94492 1.10614 9.81858L4.99995 5.92466L8.89388 9.81858C9.02022 9.94492 9.18607 10.0084 9.35192 10.0084C9.51777 10.0084 9.68362 9.94492 9.80997 9.81858C10.0634 9.56529 10.0634 9.15577 9.80997 8.90249L5.91616 5.00857Z" fill="#D56565"/>
</g>
<defs>
<clipPath id="clip0">
<rect width="10" height="10" fill="white"/>
</clipPath>
</defs>
</svg>
